<svg width="16" height="16" viewBox="0 0 16 16" fill="none" xmlns="http://www.w3.org/2000/svg">
  <path d="M10.6665 5.33334C11.7274 5.33334 12.7448 5.75477 13.4949 6.50492C14.2451 7.25506 14.6665 8.27248 14.6665 9.33334V14H11.9998V9.33334C11.9998 8.97972 11.8594 8.64058 11.6093 8.39053C11.3593 8.14049 11.0201 8.00001 10.6665 8.00001C10.3129 8.00001 9.97374 8.14049 9.7237 8.39053C9.47365 8.64058 9.33317 8.97972 9.33317 9.33334V14H6.6665V9.33334C6.6665 8.27248 7.08793 7.25506 7.83808 6.50492C8.58822 5.75477 9.60564 5.33334 10.6665 5.33334Z" fill="#0082E6" />
  <path d="M4.00016 6H1.3335V14H4.00016V6Z" fill="#0082E6" />
  <path d="M2.66683 4.00001C3.40321 4.00001 4.00016 3.40306 4.00016 2.66668C4.00016 1.9303 3.40321 1.33334 2.66683 1.33334C1.93045 1.33334 1.3335 1.9303 1.3335 2.66668C1.3335 3.40306 1.93045 4.00001 2.66683 4.00001Z" fill="#0082E6" />
</svg>