<svg width="16" height="16" viewBox="0 0 16 16" fill="none" xmlns="http://www.w3.org/2000/svg">
  <g clip-path="url(#clip0_725_346)">
    <path d="M15.0269 4.27999C14.9477 3.9636 14.7864 3.6737 14.5593 3.43959C14.3322 3.20548 14.0474 3.03545 13.7336 2.94666C12.5869 2.66666 8.00022 2.66666 8.00022 2.66666C8.00022 2.66666 3.41355 2.66666 2.26689 2.97332C1.95305 3.06211 1.6682 3.23215 1.44112 3.46626C1.21403 3.70037 1.05274 3.99026 0.973552 4.30666C0.763695 5.47036 0.661042 6.65086 0.666885 7.83332C0.659405 9.02469 0.762063 10.2142 0.973552 11.3867C1.06086 11.6932 1.22576 11.9721 1.45231 12.1963C1.67887 12.4205 1.95943 12.5825 2.26689 12.6667C3.41355 12.9733 8.00022 12.9733 8.00022 12.9733C8.00022 12.9733 12.5869 12.9733 13.7336 12.6667C14.0474 12.5779 14.3322 12.4078 14.5593 12.1737C14.7864 11.9396 14.9477 11.6497 15.0269 11.3333C15.2351 10.1784 15.3378 9.00688 15.3336 7.83332C15.341 6.64196 15.2384 5.45246 15.0269 4.27999V4.27999Z" stroke="#0082E6" stroke-width="2" stroke-linecap="round" stroke-linejoin="round" />
    <path d="M6.5 10.0133L10.3333 7.83332L6.5 5.65332V10.0133Z" fill="#0082E6" />
  </g>
  <defs>
    <clipPath id="clip0_725_346">
      <rect width="16" height="16" fill="white" />
    </clipPath>
  </defs>
</svg>